<svg width="40" height="40" viewBox="0 0 40 40" fill="none" xmlns="http://www.w3.org/2000/svg">
<path fill-rule="evenodd" clip-rule="evenodd" d="M21.5533 19.9301C21.7703 19.7978 21.9544 19.5207 22.1029 19.2127C24.0569 20.0108 25.43 21.8968 25.43 24.0963C25.43 27.0181 23.0067 29.3868 20.0174 29.3868C18.7903 29.3868 17.6585 28.9876 16.7507 28.3149C16.4528 28.174 16.2078 28.0386 16.0073 27.9278C15.6963 27.756 15.4924 27.6433 15.3647 27.6609C14.9914 27.7124 15.0998 28.0556 15.1983 28.3674C15.2651 28.5793 15.3275 28.7766 15.231 28.8579C15.13 28.9432 14.8031 28.6316 14.4211 28.2676C13.901 27.7721 13.2789 27.1793 12.9855 27.3573C12.7535 27.4981 12.9787 27.8801 13.2544 28.3476L13.2749 28.3822C13.3913 28.5799 13.5263 28.7811 13.6494 28.9648C13.8997 29.3379 14.1014 29.6387 14.0005 29.6896C13.8785 29.7511 13.0289 29.1779 12.3129 28.3822C12.0365 28.0752 11.7689 27.7423 11.5201 27.433V27.4329C10.9756 26.7558 10.5219 26.1917 10.2673 26.2586C9.96094 26.3389 10.1927 26.9704 10.5332 27.5781C10.6924 27.8623 10.8797 28.1517 11.0419 28.4023V28.4023C11.2941 28.7919 11.4855 29.0876 11.4161 29.124C11.3224 29.1729 10.4981 28.3696 9.93823 27.3573C9.60568 26.756 9.32645 26.0915 9.10039 25.5536C8.85523 24.9701 8.67262 24.5356 8.55237 24.4918C8.13458 24.3399 8.13458 25.1912 8.30214 26.4199C8.324 26.5802 8.35655 26.7483 8.39663 26.9195C10.0216 32.1741 15.0135 36 20.9195 36C28.1437 36 34 30.2758 34 23.2145C34 16.4938 28.695 10.9842 21.9547 10.4684C21.9632 10.1518 22.1285 9.52394 22.1285 9.52394C22.1285 9.52394 23.3185 6.6467 23.3814 6.03187C23.3855 5.99106 23.3904 5.94672 23.3958 5.89949C23.4699 5.23518 23.6078 4 22.5445 4C21.9766 4 21.7126 4.42217 21.4106 4.90499V4.905C21.2947 5.09036 21.1731 5.28466 21.0266 5.46744C19.9717 6.78398 18.1979 8.42805 17.1921 9.30394C15.0662 11.1553 12.9804 12.6768 11.7639 13.5641L11.7639 13.5642C11.2106 13.9677 10.8372 14.2402 10.7216 14.3527C9.85071 15.2013 6.72806 20.8304 6.72806 20.8304C6.72806 20.8304 5.71822 22.6364 6.07716 23.0027C6.4361 23.3689 7.30167 23.285 7.30167 23.285C7.30167 23.285 18.93 20.6189 19.9711 20.4087C20.2514 20.3521 20.4493 20.3194 20.6012 20.2943C21.0136 20.2263 21.0877 20.214 21.5533 19.9301ZM13.3316 16.504C12.7074 17.0969 11.6723 18.5122 11.6723 18.5122C11.6723 18.5122 13.5962 18.6307 14.6558 17.6241C15.7154 16.6175 15.4726 14.9021 15.4726 14.9021C15.4726 14.9021 13.9558 15.9111 13.3316 16.504Z" fill="#4F46E5"/>
</svg>
