<svg width="40" height="40" viewBox="0 0 40 40" fill="none" xmlns="http://www.w3.org/2000/svg">
<path fill-rule="evenodd" clip-rule="evenodd" d="M18.3577 32.3031C18.9656 32.3962 19.5882 32.4444 20.2222 32.4444C26.9724 32.4444 32.4444 26.9724 32.4444 20.2222C32.4444 13.4721 26.9724 8 20.2222 8C19.7694 8 19.3222 8.02463 18.8821 8.07263C22.2305 10.6094 24.4444 15.0039 24.4444 20C24.4444 25.2525 21.9975 29.84 18.3577 32.3031ZM20 36C28.8365 36 36 28.8366 36 20C36 11.1634 28.8365 4 20 4C11.1634 4 4 11.1634 4 20C4 28.8366 11.1634 36 20 36Z" fill="#3E374A"/>
</svg>
