<svg width="40" height="40" viewBox="0 0 40 40" fill="none" xmlns="http://www.w3.org/2000/svg">
<path fill-rule="evenodd" clip-rule="evenodd" d="M4.00319 20.0191C3.99894 20.012 3.99894 20.0032 4.00319 19.996L12.0497 6.5113C12.0539 6.5043 12.0616 6.5 12.0698 6.5H28.0184C28.0267 6.5 28.0344 6.50434 28.0386 6.5114L35.9969 19.9961C36.001 20.0032 36.001 20.012 35.9969 20.019L28.0386 33.4886C28.0344 33.4956 28.0267 33.5 28.0184 33.5H12.0698C12.0616 33.5 12.0539 33.4957 12.0497 33.4887L4.00319 20.0191ZM27.4136 20C27.4136 24.0147 24.0955 27.2692 20.0025 27.2692C15.9095 27.2692 12.5914 24.0147 12.5914 20C12.5914 15.9853 15.9095 12.7308 20.0025 12.7308C24.0955 12.7308 27.4136 15.9853 27.4136 20Z" fill="#0891B2"/>
</svg>
