<svg width="40" height="40" viewBox="0 0 40 40" fill="none" xmlns="http://www.w3.org/2000/svg">
<path fill-rule="evenodd" clip-rule="evenodd" d="M9.13658 31.9148C9.0133 31.8076 8.89139 31.6982 8.77089 31.5868C2.4097 25.7025 2.4097 16.1622 8.77089 10.278C15.132 4.39365 35.4012 4 35.4012 4C35.4012 4 38.1679 25.7025 31.8068 31.5868C26.1572 36.8128 17.3902 37.3974 11.0431 33.3407L16.1574 27.5352L24.3329 25.9024L17.6593 25.2853L21.9005 21.2907L26.7282 20.3124L22.9107 19.2666L26.7282 12.8962L21.2982 18.5303L19.2013 15.7931L19.9395 20.3124L16.1574 24.2564L14.4042 19.2665V25.9024L9.13658 31.9148Z" fill="#15803D"/>
</svg>
