<svg width="40" height="40" viewBox="0 0 40 40" fill="none" xmlns="http://www.w3.org/2000/svg">
<path fill-rule="evenodd" clip-rule="evenodd" d="M28.7075 19.33C28.7057 19.3275 28.7049 19.3244 28.7054 19.3214L30.7427 7.50941C30.7437 7.50398 30.7485 7.5 30.754 7.5H31.3987C31.4037 7.5 31.4081 7.50321 31.4096 7.50792L35.9995 21.9579C36.0009 21.9623 35.9993 21.9673 35.9956 21.9702L32.6114 24.5974C32.6064 24.6013 32.5991 24.6003 32.5953 24.5952L28.7075 19.33ZM4 27.1605C4 27.1654 4.00317 27.1697 4.00785 27.1713L10.984 29.4393C10.9874 29.4404 10.9911 29.4398 10.994 29.4378L26.5873 18.7338C26.5899 18.732 26.5917 18.7293 26.5921 18.7262L28.2643 7.56998C28.2654 7.56313 28.26 7.55698 28.2531 7.55698H14.4413C14.4378 7.55698 14.4347 7.55848 14.4325 7.56108L4.00262 20.0715C4.00093 20.0736 4 20.0761 4 20.0788V27.1605ZM13.891 30.0171L21.5123 32.4994C21.5157 32.5006 21.5195 32.5 21.5224 32.4979L30.5961 26.0263C30.6011 26.0228 30.6024 26.0159 30.599 26.0108L27.1975 20.9779C27.1939 20.9726 27.1868 20.9713 27.1816 20.9749L13.891 30.0171Z" fill="#3F3F46"/>
</svg>
