<svg width="40" height="40" viewBox="0 0 40 40" fill="none" xmlns="http://www.w3.org/2000/svg">
<path fill-rule="evenodd" clip-rule="evenodd" d="M11.0478 31.9066C11.0391 31.9066 11.033 31.8977 11.0359 31.8892L19.2056 8.00866C19.2074 8.00347 19.2122 8 19.2175 8H27.9389C27.9442 8 27.949 8.0035 27.9508 8.00872L35.9993 31.8893C36.0021 31.8978 35.9961 31.9066 35.9874 31.9066H11.2933H11.0478ZM4.01258 32C4.00381 32 3.99773 31.9909 4.00081 31.9825L10.0846 15.1804C10.0864 15.1753 10.0911 15.1719 10.0963 15.1719H15.3824C15.3912 15.1719 15.3972 15.1809 15.3942 15.1894L9.51141 31.9915C9.50961 31.9966 9.50489 32 9.4996 32H4.01258Z" fill="#854D0E"/>
</svg>
