<svg width="40" height="40" viewBox="0 0 40 40" fill="none" xmlns="http://www.w3.org/2000/svg">
<path fill-rule="evenodd" clip-rule="evenodd" d="M27.0595 35.8892C24.1731 36.0369 20.8685 36.0369 19.7455 35.8892C10.9856 34.7367 4 28.3321 4 19.675C4 11.0179 11.1634 4 20 4C28.8366 4 36 11.0179 36 19.675C36 23.7013 34.4504 27.3731 31.9037 30.1492C31.2122 30.903 32.1611 31.4317 33.1251 31.969C34.0706 32.4959 35.0308 33.031 34.4727 33.7945C33.8579 34.6358 30.5245 35.7118 27.0595 35.8892ZM17.75 17.7156C17.75 19.0682 16.6307 20.1648 15.25 20.1648C13.8693 20.1648 12.75 19.0682 12.75 17.7156C12.75 16.8084 13.2534 16.0165 14.0015 15.5932C14.0446 16.7726 15.0143 17.7156 16.2043 17.7156H17.75V17.7156ZM25.4985 15.5932C25.4554 16.7726 24.4857 17.7156 23.2957 17.7156H21.75V17.7156C21.75 19.0682 22.8693 20.1648 24.25 20.1648C25.6307 20.1648 26.75 19.0682 26.75 17.7156C26.75 16.8084 26.2466 16.0165 25.4985 15.5932Z" fill="#6B21A8"/>
</svg>
