<svg width="40" height="40" viewBox="0 0 40 40" fill="none" xmlns="http://www.w3.org/2000/svg">
<path fill-rule="evenodd" clip-rule="evenodd" d="M10.4206 29.3745L15.5534 27.8862L19.9867 35.9921C19.9925 36.0026 20.0075 36.0026 20.0133 35.9921L24.4466 27.8862L29.5794 29.3745C29.5909 29.3778 29.6016 29.3671 29.5982 29.3556L28.1096 24.3244L35.9921 20.0133C36.0026 20.0075 36.0026 19.9925 35.9921 19.9867L28.0447 15.6401L29.5982 10.3893C29.6016 10.3778 29.5909 10.3671 29.5794 10.3704L24.3262 11.8936L20.0133 4.00789C20.0075 3.99737 19.9925 3.99737 19.9867 4.00789L15.6738 11.8936L10.4206 10.3704C10.4091 10.3671 10.3984 10.3778 10.4018 10.3893L11.9553 15.6401L4.00789 19.9867C3.99737 19.9925 3.99737 20.0075 4.00789 20.0133L11.8903 24.3244L10.4018 29.3556C10.3984 29.3671 10.4091 29.3778 10.4206 29.3745ZM14.4036 20.0553L18.0399 22.044L20.0287 25.6803C20.0344 25.6908 20.0495 25.6908 20.0553 25.6803L22.044 22.044L25.6803 20.0553C25.6908 20.0495 25.6908 20.0344 25.6803 20.0287L22.044 18.0399L20.0553 14.4037C20.0495 14.3931 20.0344 14.3931 20.0287 14.4037L18.0399 18.0399L14.4036 20.0287C14.3931 20.0344 14.3931 20.0495 14.4036 20.0553Z" fill="#F472B6"/>
</svg>
