<svg width="40" height="40" viewBox="0 0 40 40" fill="none" xmlns="http://www.w3.org/2000/svg">
<path fill-rule="evenodd" clip-rule="evenodd" d="M25.3291 4.18557C25.3522 4.15266 25.3975 4.14466 25.4304 4.1677L27.6806 5.74334C27.7136 5.76638 27.7216 5.81174 27.6985 5.84465L24.5666 10.3175C26.0892 10.8039 27.1265 11.3286 27.1265 11.3286C27.1265 11.3286 24.591 15.6901 20.2904 15.6901C15.9898 15.6901 12.9339 11.6251 12.9339 11.6251C12.9339 11.6251 14.0175 10.9336 15.6237 10.3405L12.1884 6.24653C12.1626 6.21575 12.1666 6.16986 12.1974 6.14404L14.3017 4.37828C14.3325 4.35245 14.3784 4.35647 14.4042 4.38725L18.7538 9.57097C19.1263 9.52884 19.5057 9.5053 19.8886 9.5053C20.4389 9.5053 20.9886 9.54713 21.5252 9.61813L25.3291 4.18557ZM26.1799 15.8966C27.3276 15.077 29.0642 12.9377 29.0642 12.9377C29.0642 12.9377 33.5 16.4528 33.5 23.9063C33.5 31.3597 25.8311 35.8456 25.8311 35.8456C25.8311 35.8456 22.1671 32.1453 21.2676 27.4546C20.3682 22.764 22.5982 17.5555 22.5982 17.5555C22.5982 17.5555 25.0322 16.7163 26.1799 15.8966ZM13.8201 15.8966C12.6724 15.077 10.9358 12.9377 10.9358 12.9377C10.9358 12.9377 6.5 16.4528 6.5 23.9063C6.5 31.3597 14.1689 35.8456 14.1689 35.8456C14.1689 35.8456 17.8329 32.1453 18.7324 27.4546C19.6318 22.764 17.4018 17.5555 17.4018 17.5555C17.4018 17.5555 14.9678 16.7163 13.8201 15.8966Z" fill="#84CC16"/>
</svg>
