<svg width="40" height="40" viewBox="0 0 40 40" fill="none" xmlns="http://www.w3.org/2000/svg">
<path fill-rule="evenodd" clip-rule="evenodd" d="M32.6335 30.5769C32.6335 30.5769 28.5597 33.8134 20.453 32.4741C14.3025 31.4579 11.0222 24.7418 11.0222 21.1318C11.0222 12.5727 17.4172 10.625 21.7407 10.625C26.0641 10.625 28.8845 14.8004 28.8845 18.0333C28.8845 21.2661 26.5763 24.0938 22.9841 24.0938C19.3921 24.0938 18.3282 21.5957 18.3282 19.299C18.3282 17.0024 20.204 16.1933 21.9147 16.1933C23.6254 16.1933 24.2112 17.64 24.2112 18.8835C24.2112 20.127 23.2372 20.5723 22.4249 20.5723C21.6125 20.5723 21.5322 20.1663 21.2213 19.7396C20.9103 19.313 21.6178 17.6981 20.453 17.6981C19.2881 17.6981 19.071 19.5546 19.071 19.5546C19.071 19.5546 19.4957 23.1383 22.9841 23.0765C26.4727 23.0146 28.1276 20.3431 27.6467 17.6981C27.1657 15.0531 24.5743 12.2425 20.0264 12.8104C15.4785 13.3783 13.6216 17.9303 14.4401 22.7948C15.2586 27.6594 21.1417 30.478 25.7673 29.4639C30.3929 28.4499 35 25.1327 35 16.7222C35 8.31165 27.6467 3.25616 18.8785 4.08933C10.1103 4.9225 4.66739 12.516 5.01579 21.6398C5.36418 30.7636 14.1039 35.7327 21.4942 35.9888C28.8845 36.245 33.4151 32.0072 33.4151 32.0072C33.4151 32.0072 34.434 31.1072 34.0345 30.4044C33.6351 29.7015 32.6335 30.5769 32.6335 30.5769Z" fill="#EC4899"/>
</svg>
