<svg width="40" height="40" viewBox="0 0 40 40" fill="none" xmlns="http://www.w3.org/2000/svg">
<path fill-rule="evenodd" clip-rule="evenodd" d="M28.2459 6.03635L28.3469 14.9152L20.6118 18.6328L20.5164 10.2494L28.2459 6.03635Z" fill="#0D9488"/>
<path fill-rule="evenodd" clip-rule="evenodd" d="M36 20.0272L28.3428 24.4122L20.681 20.0203L28.3388 15.9931L36 20.0272Z" fill="#0D9488"/>
<path fill-rule="evenodd" clip-rule="evenodd" d="M19.319 20.0272L11.6618 24.4122L4 20.0203L11.6578 15.9931L19.319 20.0272Z" fill="#0D9488"/>
<path fill-rule="evenodd" clip-rule="evenodd" d="M11.5757 6L19.5234 9.94082L19.3202 18.5287L11.8161 14.8079L11.5757 6Z" fill="#0D9488"/>
<path fill-rule="evenodd" clip-rule="evenodd" d="M28.4622 33.9201L20.5146 29.9793L20.7178 21.3913L28.2219 25.1122L28.4622 33.9201Z" fill="#0D9488"/>
<path fill-rule="evenodd" clip-rule="evenodd" d="M11.8502 34L11.7492 25.1211L19.4843 21.4036L19.5797 29.7869L11.8502 34Z" fill="#0D9488"/>
</svg>
