<svg width="40" height="40" viewBox="0 0 40 40" fill="none" xmlns="http://www.w3.org/2000/svg">
<path fill-rule="evenodd" clip-rule="evenodd" d="M15.1695 34C19.8572 34 23.8705 31.3696 25.5273 27.6409C25.5475 27.5954 18.8755 29.3915 19.0882 28.7566C19.1832 28.473 23.2732 26.9646 26.253 25.205C27.9657 24.1937 28.7544 22.0529 28.7544 22.0529C28.7544 22.0529 25.869 23.4673 24.4103 23.8261C21.4708 24.5492 18.8832 24.4714 18.8832 24.396C18.8832 24.2331 23.1798 23.4089 29.1516 19.7348C31.9605 18.0067 32.7234 15.0299 32.7234 15.0299C32.7234 15.0299 29.6352 16.8871 27.7684 17.5003C23.3411 18.9543 19.301 19.3925 19.301 19.1957C19.301 18.7745 22.8564 17.7874 26.626 15.9433C28.5861 14.9844 30.2835 13.7318 32.2506 12.3387C35.4692 10.0594 36 6 36 6C36 6 32.8255 8.0672 31.2763 8.75369C24.8839 11.5864 19.2393 13.0723 15.1695 13.394C9.02601 13.8796 4 18.2073 4 23.8261C4 29.445 9.00075 34 15.1695 34Z" fill="#1D4ED8"/>
</svg>
