<svg width="40" height="40" viewBox="0 0 40 40" fill="none" xmlns="http://www.w3.org/2000/svg">
<path fill-rule="evenodd" clip-rule="evenodd" d="M30 25.6582C30 31.3698 25.5229 36 20 36C14.4771 36 10 31.3698 10 25.6582C10 20.1032 19.4591 4.84678 19.9778 4.01424C19.9897 3.99525 20.0104 3.99525 20.0222 4.01424C20.5409 4.84678 30 20.1032 30 25.6582ZM18.333 32.6845C13.2586 31.5319 14.1269 25.6966 14.1269 25.6966C14.1269 25.6966 15.5126 29.2191 18.8752 30.3602C22.2378 31.5012 26.3015 29.8277 26.3015 29.8277C26.3015 29.8277 23.4075 33.837 18.333 32.6845Z" fill="#2563EB"/>
</svg>
