<svg width="40" height="40" viewBox="0 0 40 40" fill="none" xmlns="http://www.w3.org/2000/svg">
<path fill-rule="evenodd" clip-rule="evenodd" d="M9.47197 6.66035C9.86097 5.13134 11.2523 4 12.9091 4C14.1518 4 15.2452 4.63654 15.8783 5.6H16.9149C17.559 4.94197 18.4588 4.53333 19.4545 4.53333C20.9144 4.53333 22.1682 5.41176 22.7118 6.66667H23.5797C24.1235 6.32866 24.7661 6.13333 25.4545 6.13333C26.9144 6.13333 28.1682 7.01176 28.7117 8.26667H31.0719C31.0921 8.26667 31.111 8.27207 31.1272 8.28151C31.235 8.27169 31.3442 8.26667 31.4545 8.26667C33.4126 8.26667 34.9999 9.84696 34.9999 11.7964V22.3804L35 22.4L34.9999 22.4196V22.5721C34.9999 22.6366 34.9982 22.7009 34.9947 22.7649C34.7813 30.1073 28.1497 36 20 36C11.7157 36 5 29.9111 5 22.4C5 18.7744 6.56476 15.4802 9.11538 13.0422C9.10902 16.5768 9.16899 20.2309 9.44542 20.1682C10.1856 20.0002 9.60729 9.05247 9.47197 6.66035Z" fill="#DB2777"/>
</svg>
