<svg width="40" height="40" viewBox="0 0 40 40" fill="none" xmlns="http://www.w3.org/2000/svg">
<path fill-rule="evenodd" clip-rule="evenodd" d="M26.0322 28.7121C26.4279 27.2664 25.6598 24.2944 25.6598 24.2944C25.6598 24.2944 25.1027 26.7156 24.2321 27.6104C23.4895 28.3738 22.5796 28.9032 21.2747 29.0423C22.3416 28.5246 23.0753 27.445 23.0753 26.1972C23.0753 24.4456 21.6295 23.0256 19.846 23.0256C18.0626 23.0256 16.6167 24.4456 16.6167 26.1972C16.6167 26.6756 16.7246 27.1293 16.9178 27.536C15.8023 26.6481 15.6269 25.2246 15.6269 25.2246C15.6269 25.2246 14.3812 30.3915 17.8134 32.822C21.2455 35.2525 27.969 33.1634 27.969 33.1634C27.969 33.1634 18.3473 39.9273 11.2176 32.5656C5.07596 26.224 9.61464 17.8752 9.61464 17.8752C9.61464 17.8752 9.41863 18.6497 9.41863 19.5488C9.41863 20.4478 9.90652 21.1319 9.90652 21.1319C9.90652 21.1319 11.3619 18.0669 12.4945 16.8205C13.5665 15.6409 14.9102 14.6841 16.0709 13.8578C16.9643 13.2216 17.7492 12.6628 18.218 12.1389C20.8001 9.2543 19.2169 4 19.2169 4C19.2169 4 22.1276 6.56375 22.9402 9.87487C23.25 11.137 23.0507 12.5731 22.8726 13.8573C22.5833 15.942 22.3495 17.6266 24.4392 17.5173C27.8161 17.3406 24.8817 12.1389 24.8817 12.1389C24.8817 12.1389 32.5417 16.1614 31.9695 23.1966C31.3971 30.2317 23.5966 31.8311 23.5966 31.8311C23.5966 31.8311 25.6364 30.1578 26.0322 28.7121Z" fill="#FB923C"/>
</svg>
