<svg width="40" height="40" viewBox="0 0 40 40" fill="none" xmlns="http://www.w3.org/2000/svg">
<path fill-rule="evenodd" clip-rule="evenodd" d="M30.7388 28.5906C33.9703 26.0068 36 22.2735 36 18.1219C36 10.3226 28.8366 4 20 4C11.1634 4 4 10.3226 4 18.1219C4 22.1236 5.88586 25.7366 8.91596 28.3063C8.73232 28.9404 8.63158 29.6301 8.63158 30.3512C8.63158 33.4709 10.5167 36 12.8421 36C14.3531 36 15.6783 34.9322 16.4211 33.3284C17.1639 34.9322 18.489 36 20 36C21.3774 36 22.6003 35.1127 23.3684 33.7411C24.1366 35.1127 25.3595 36 26.7368 36C29.0623 36 30.9474 33.4709 30.9474 30.3512C30.9474 29.7365 30.8741 29.1446 30.7388 28.5906ZM29.2632 18.4019C29.2632 22.3616 25.0216 25.5715 19.7895 25.5715C14.5573 25.5715 10.3158 22.3616 10.3158 18.4019C10.3158 14.4423 14.5573 11.2324 19.7895 11.2324C25.0216 11.2324 29.2632 14.4423 29.2632 18.4019Z" fill="#7E22CE"/>
</svg>
